Coordinates
version=1
nRows=8
nColumns=63
inDegrees=yes

Units are S.I. units (second, meters, Newtons, ...)
If the header above contains a line with 'inDegrees', this indicates whether rotational values are in degrees (yes) or radians (no).

endheader
time	pelvis_tilt	pelvis_list	pelvis_rotation	pelvis_tx	pelvis_ty	pelvis_tz	hip_flexion_r	hip_adduction_r	hip_rotation_r	knee_angle_r	knee_angle_r_beta	ankle_angle_r	subtalar_angle_r	mtp_angle_r	hip_flexion_l	hip_adduction_l	hip_rotation_l	knee_angle_l	knee_angle_l_beta	ankle_angle_l	subtalar_angle_l	mtp_angle_l	L5_S1_Flex_Ext	L5_S1_Lat_Bending	L5_S1_axial_rotation	L4_L5_Flex_Ext	L4_L5_Lat_Bending	L4_L5_axial_rotation	L3_L4_Flex_Ext	L3_L4_Lat_Bending	L3_L4_axial_rotation	L2_L3_Flex_Ext	L2_L3_Lat_Bending	L2_L3_axial_rotation	L1_L2_Flex_Ext	L1_L2_Lat_Bending	L1_L2_axial_rotation	L1_T12_Flex_Ext	L1_T12_Lat_Bending	L1_T12_axial_rotation	Abs_r3	Abs_r2	Abs_r1	Abs_t1	Abs_t2	neck_flexion	neck_bending	neck_rotation	arm_flex_r	arm_add_r	arm_rot_r	elbow_flex_r	pro_sup_r	wrist_flex_r	wrist_dev_r	arm_flex_l	arm_add_l	arm_rot_l	elbow_flex_l	pro_sup_l	wrist_flex_l	wrist_dev_l
6.898305	12.836189	-1.311263	98.810171	0.077782	0.684813	0.410063	141.613236	-18.509321	-3.343587	132.590183	2.314135	19.439221	-3.346196	0.000000	143.176649	-3.098273	-15.016203	134.596860	2.349158	14.303460	-19.132760	0.000000	-0.097132	0.956459	-1.740761	-0.180384	1.272091	-1.849558	-0.159578	2.325535	-1.849558	-0.111012	2.325535	-1.523166	-0.090197	1.950411	-1.414368	-0.055501	1.481555	-1.305570	-0.693804	10.819656	-9.681588	0.000000	0.000000	-5.953491	0.920567	-0.214701	57.889589	-26.592956	79.247807	99.261508	52.139206	11.364979	4.982015	60.619431	-28.206879	83.687762	95.216303	84.850509	49.717900	-1.066914
6.915254	11.358796	-1.634441	98.918011	0.080604	0.683809	0.408537	142.215696	-17.332428	-2.567138	133.007840	2.321425	19.645117	-3.749645	0.000000	142.801736	-4.257980	-15.861081	134.751540	2.351858	15.128680	-19.157083	0.000000	-0.087671	0.729718	-1.787959	-0.162814	0.970525	-1.899707	-0.144035	1.774236	-1.899707	-0.100199	1.774236	-1.564465	-0.081411	1.488041	-1.452717	-0.050095	1.130333	-1.340970	-0.626225	8.254716	-9.944094	0.000000	0.000000	-5.403385	2.178425	-0.297901	57.764721	-25.409354	79.600463	98.328628	51.752656	11.397185	4.716038	61.840397	-29.793769	88.512526	98.098820	84.266825	58.865925	1.116972
6.932203	9.939502	-1.934995	99.038371	0.083056	0.682890	0.407203	142.839106	-16.242125	-1.687591	133.457093	2.329266	19.816310	-3.899592	0.000000	142.426297	-5.420235	-16.753526	134.895000	2.354362	15.800104	-19.174324	0.000000	-0.079189	0.513448	-1.828758	-0.147061	0.682885	-1.943055	-0.130099	1.248397	-1.943055	-0.090505	1.248397	-1.600163	-0.073535	1.047022	-1.485866	-0.045248	0.795330	-1.371569	-0.565637	5.808222	-10.171003	0.000000	0.000000	-4.882994	3.422244	-0.438488	57.652100	-24.330899	79.852057	97.485158	51.226532	11.261273	4.397114	63.379234	-30.792499	93.625231	100.305237	83.764806	66.144053	2.792903
6.949153	8.535345	-2.188258	99.130615	0.085428	0.682144	0.405958	143.438298	-15.135055	-0.820978	133.901948	2.337030	19.912371	-4.114497	0.000000	142.000953	-6.661494	-17.672857	135.050364	2.357074	16.324279	-19.167235	0.000000	-0.074952	0.295290	-1.855073	-0.139194	0.392736	-1.971015	-0.123139	0.717969	-1.971015	-0.085663	0.717969	-1.623189	-0.069601	0.602156	-1.507247	-0.042828	0.457405	-1.391305	-0.535378	3.340383	-10.317361	0.000000	0.000000	-4.443524	4.775786	-0.828098	57.415387	-23.332033	79.861960	96.705340	50.037602	11.209298	4.260249	65.521745	-31.248667	99.048128	101.703161	83.687413	71.595074	3.247768
6.966102	7.277224	-2.372143	99.207505	0.087521	0.681511	0.404774	143.976588	-14.131215	-0.043835	134.296072	2.343909	19.993949	-4.355582	0.000000	141.593880	-7.880607	-18.543968	135.224408	2.360111	16.666951	-19.150037	0.000000	-0.072343	0.095850	-1.874402	-0.134349	0.127480	-1.991552	-0.118853	0.233049	-1.991552	-0.082681	0.233049	-1.640102	-0.067178	0.195457	-1.522951	-0.041337	0.148471	-1.405801	-0.516740	1.084271	-10.424860	0.000000	0.000000	-4.139512	6.096013	-1.392891	57.101138	-22.487382	79.722774	96.074164	48.687765	11.097079	4.183951	68.032152	-31.388133	104.283848	102.432475	83.987551	75.050616	2.860440
6.983051	6.262322	-2.489446	99.199671	0.089267	0.681033	0.403657	144.400688	-13.267965	0.500095	134.576374	2.348801	20.035030	-4.672773	0.000000	141.253117	-9.044008	-19.254884	135.419641	2.363519	16.828730	-19.123151	0.000000	-0.068676	-0.065403	-1.883158	-0.127539	-0.086986	-2.000855	-0.112829	-0.159021	-2.000855	-0.078490	-0.159021	-1.647763	-0.063773	-0.133370	-1.530066	-0.039242	-0.101310	-1.412369	-0.490549	-0.739854	-10.473560	0.000000	0.000000	-4.021000	7.200725	-1.843829	56.780470	-21.791116	79.544696	95.543963	47.462856	11.131837	4.153464	70.429169	-31.442266	108.696389	102.723407	83.955893	76.382235	2.517376
7.000000	5.385247	-2.509790	99.172846	0.090736	0.680752	0.402566	144.766256	-12.496494	0.944116	134.765378	2.352100	20.052366	-5.062633	0.000000	140.908339	-10.187596	-19.907717	135.620506	2.367024	16.818957	-19.081803	0.000000	-0.062953	-0.205661	-1.883916	-0.116910	-0.273529	-2.001661	-0.103425	-0.500044	-2.001661	-0.071949	-0.500044	-1.648426	-0.058458	-0.419384	-1.530682	-0.035971	-0.318569	-1.412937	-0.449667	-2.326479	-10.477775	0.000000	0.000000	-4.157179	8.187512	-2.354826	56.274108	-21.256011	79.129836	95.141699	46.877881	11.335400	4.176815	72.456075	-31.617790	112.043180	102.807403	83.705949	75.483398	2.190741
7.016949	4.882699	-2.391098	99.031359	0.091662	0.680743	0.401638	144.896906	-11.967834	1.047474	134.801923	2.352737	20.062803	-5.463044	0.000000	140.631457	-11.155324	-20.282153	135.839156	2.370841	16.665206	-19.034218	0.000000	-0.063959	-0.284201	-1.863046	-0.118779	-0.377987	-1.979487	-0.105079	-0.691006	-1.979487	-0.073099	-0.691006	-1.630165	-0.059393	-0.579543	-1.513725	-0.036546	-0.440227	-1.397285	-0.456855	-3.214938	-10.361704	0.000000	0.000000	-4.488394	8.776868	-2.653621	55.825130	-20.986833	78.760818	94.919946	47.101211	11.640647	4.150230	73.723512	-31.914135	113.869156	102.766268	83.504383	72.504090	1.645652
